<?xml version="1.0" encoding="UTF-8"?>
<svg width="700pt" height="700pt" version="1.1" viewBox="0 0 700 700" xmlns="http://www.w3.org/2000/svg">
 <path d="m235.73 75.188c-17.637 0.45312-31.906 15.113-31.906 32.883v5.6719h-98.883c-4.8086 0.019531-8.6992 3.9102-8.7188 8.7148-0.007812 2.3242 0.90625 4.5508 2.5391 6.1992 1.6367 1.6484 3.8594 2.5781 6.1797 2.5859h98.883v5.6914c0 18.051 14.738 32.883 32.762 32.883h50.824c18.023 0 32.746-14.832 32.746-32.883v-5.6914h274.84-0.003906c2.332 0.011718 4.5703-0.91406 6.2188-2.5625 1.6523-1.6484 2.5742-3.8867 2.5664-6.2227-0.011719-2.3203-0.94141-4.5391-2.5898-6.1758-1.6445-1.6328-3.875-2.5469-6.1953-2.5391h-274.84v-5.6719c0-18.051-14.719-32.883-32.746-32.883h-50.824c-0.28125 0-0.57422-0.007812-0.85547 0zm0.85547 17.434h50.824c8.5703 0 15.246 6.7305 15.246 15.449v28.863c0 8.7188-6.6719 15.363-15.246 15.363h-50.824c-8.5703 0-15.246-6.6445-15.246-15.363v-28.863c0-8.7188 6.6719-15.449 15.246-15.449zm176.01 140.04c-18.023 0-32.742 14.898-32.742 32.949v5.6758l-274.91-0.003906c-4.8125 0.019531-8.707 3.9219-8.7188 8.7344 0.019532 4.8047 3.9102 8.6953 8.7188 8.7148h274.91v5.6758c0 18.051 14.719 32.949 32.742 32.949h50.824c18.023 0 32.762-14.898 32.762-32.949v-5.6758h98.816c2.3203 0.007813 4.5508-0.90625 6.1953-2.5391 1.6484-1.6328 2.5781-3.8555 2.5898-6.1758-0.007813-2.3242-0.93359-4.5508-2.582-6.1914-1.6484-1.6367-3.8789-2.5508-6.2031-2.543h-98.812v-5.6758c0-18.051-14.738-32.949-32.762-32.949zm0 17.5h50.824c8.5703 0 15.246 6.7305 15.246 15.449v28.797c0 8.7188-6.6719 15.449-15.246 15.449h-50.824c-8.5703 0-15.242-6.7305-15.242-15.449v-28.797c0-8.7188 6.6719-15.449 15.242-15.449zm-176.01 140.03c-18.023 0-32.762 14.832-32.762 32.883v5.6914h-98.879c-2.3203 0.007812-4.543 0.9375-6.1797 2.5859-1.6328 1.6484-2.5469 3.875-2.5391 6.1953 0.019532 4.8086 3.9102 8.6992 8.7188 8.7188h98.883v5.6914c0 18.051 14.738 32.863 32.762 32.863h50.824c18.023 0 32.746-14.812 32.746-32.863v-5.6914h274.84-0.003906c2.3203 0.007812 4.5508-0.90625 6.1953-2.5391 1.6484-1.6367 2.5781-3.8594 2.5898-6.1797 0.007812-2.332-0.91406-4.5703-2.5664-6.2188-1.6484-1.6523-3.8867-2.5742-6.2188-2.5625h-274.84v-5.6914c0-18.051-14.719-32.883-32.746-32.883zm0 17.516h50.824c8.5703 0 15.246 6.6445 15.246 15.363v28.883c0 8.7188-6.6719 15.363-15.246 15.363h-50.824c-8.5703 0-15.246-6.6445-15.246-15.363v-28.883c0-8.7188 6.6719-15.363 15.246-15.363z"/>
</svg>
