<svg xmlns="http://www.w3.org/2000/svg" xmlns:xlink="http://www.w3.org/1999/xlink" viewBox="0,0,256,256" width="40px" height="40px" fill-rule="nonzero"><defs><linearGradient x1="31.916" y1="31.849" x2="25.088" y2="26.05" gradientUnits="userSpaceOnUse" id="color-1"><stop offset="0" stop-color="#b2b2b2"></stop><stop offset="0.999" stop-color="#000000"></stop></linearGradient></defs><g fill="none" fill-rule="nonzero" stroke="none" stroke-width="1" stroke-linecap="butt" stroke-linejoin="miter" stroke-miterlimit="10" stroke-dasharray="" stroke-dashoffset="0" font-family="none" font-weight="none" font-size="none" text-anchor="none" style="mix-blend-mode: normal"><g transform="scale(6.4,6.4)"><path d="M29.976,27l-5.525,0.176l9.499,9.602l2.828,-2.828z" fill="url(#color-1)"></path><path d="M24.313,27c-1.788,1.256 -3.962,2 -6.313,2c-6.075,0 -11,-4.925 -11,-11c0,-6.075 4.925,-11 11,-11c6.075,0 11,4.925 11,11c0,2.659 -0.944,5.098 -2.515,7h4.776c1.107,-2.091 1.739,-4.47 1.739,-7c0,-8.284 -6.716,-15 -15,-15c-8.284,0 -15,6.716 -15,15c0,8.284 6.716,15 15,15c4.903,0 9.243,-2.363 11.98,-6z" fill="#b2b2b2"></path></g></g></svg>